<?xml version="1.0" encoding="utf-8"?>
<!-- Generator: Adobe Illustrator 23.0.2, SVG Export Plug-In . SVG Version: 6.00 Build 0)  -->
<svg version="1.1" id="Layer_1" xmlns="http://www.w3.org/2000/svg" xmlns:xlink="http://www.w3.org/1999/xlink" x="0px" y="0px"
	 viewBox="0 0 2048 2048" style="enable-background:new 0 0 2048 2048;" xml:space="preserve">
<style type="text/css">
	.st0{fill:#007BFF;}
</style>
<path class="st0" d="M1472,800c-229.75,0-416,186.25-416,416s186.25,416,416,416s416-186.25,416-416S1701.75,800,1472,800z
	 M1472,1344c-70.69,0-128-57.31-128-128s57.31-128,128-128s128,57.31,128,128S1542.69,1344,1472,1344z"/>
<path class="st0" d="M576,800c-229.75,0-416,186.25-416,416s186.25,416,416,416s416-186.25,416-416S805.75,800,576,800z M576,1344
	c-70.69,0-128-57.31-128-128s57.31-128,128-128s128,57.31,128,128S646.69,1344,576,1344z"/>
<g>
	<path class="st0" d="M1715.95,439.77c3.44,3.66,7.51,6.54,12.21,8.63c4.71,2.09,9.67,3.14,14.9,3.14c5.38,0,10.38-1.04,15.01-3.14
		c4.63-2.09,8.7-5,12.21-8.74c3.51-3.73,6.27-8.07,8.29-13s3.03-10.23,3.03-15.91c0-5.83-0.97-11.24-2.91-16.25
		c-1.94-5-4.67-9.33-8.18-13c-3.51-3.66-7.62-6.53-12.32-8.63c-4.71-2.09-9.75-3.14-15.13-3.14c-5.68,0-10.87,1.09-15.57,3.25
		c-4.71,2.17-8.74,5.08-12.1,8.74c-3.36,3.66-5.98,7.99-7.84,13c-1.87,5.01-2.8,10.35-2.8,16.02c0,5.68,1.01,11.02,3.03,16.02
		C1709.78,431.78,1712.51,436.11,1715.95,439.77z"/>
	<path class="st0" d="M775.24,596.97c14.64,0,26.48-5.64,35.52-16.92c9.04-11.28,13.56-26.18,13.56-44.7v-18.15
		c0-14.49-4.3-26.85-12.88-37.09c-8.59-10.23-19.76-15.35-33.5-15.35c-15.69,0-28.01,6.13-36.97,18.38
		c-8.96,12.25-13.45,29.51-13.45,51.76c0,19.12,4.26,34.25,12.77,45.38C748.8,591.4,760.45,596.97,775.24,596.97z"/>
	<path class="st0" d="M1855.39,256H192.61C86.23,256,0,342.23,0,448.61v1150.78C0,1705.77,86.23,1792,192.61,1792H576h128h640h128
		h383.39c106.37,0,192.61-86.23,192.61-192.61V448.61C2048,342.23,1961.77,256,1855.39,256z M1631.8,533.21
		c2.61-8.29,6.53-15.98,11.76-23.08c5.23-7.09,11.76-13.45,19.61-19.05c7.84-5.6,17.07-10.2,27.67-13.78
		c-16.28-8.07-28.91-18.41-37.87-31.04c-8.96-12.62-13.45-26.63-13.45-42.02c0-12.25,2.58-23.6,7.73-34.06
		c5.15-10.45,12.29-19.5,21.4-27.11c9.11-7.62,19.98-13.56,32.6-17.81c12.62-4.26,26.4-6.39,41.34-6.39c15.24,0,29.2,2.13,41.9,6.39
		c12.7,4.26,23.64,10.16,32.83,17.7c9.19,7.55,16.32,16.47,21.4,26.78c5.08,10.31,7.62,21.51,7.62,33.61
		c0,15.24-4.78,29.1-14.34,41.57c-9.56,12.48-22.78,22.74-39.66,30.81c10.45,3.59,19.64,8.18,27.56,13.78
		c7.92,5.6,14.57,11.99,19.94,19.16c5.38,7.17,9.41,14.98,12.1,23.42c2.69,8.44,4.03,17.22,4.03,26.33
		c0,13.75-2.77,26.26-8.29,37.53c-5.53,11.28-13.33,20.99-23.42,29.13c-10.08,8.14-22.11,14.45-36.08,18.94
		c-13.97,4.48-29.39,6.72-46.27,6.72c-16.58,0-31.86-2.21-45.83-6.61c-13.97-4.4-25.99-10.64-36.08-18.71
		c-10.08-8.07-17.96-17.74-23.64-29.02c-5.68-11.28-8.52-23.71-8.52-37.31C1627.88,550.13,1629.19,541.5,1631.8,533.21z
		 M1509.34,305.88h70.81v339.71h-70.81V305.88z M1324.47,504.64l62.3-8.29c0-25.1-13.6-37.65-40.78-37.65
		c-27.34,0-53.33,8.14-77.98,24.43V429.8c9.86-5.08,23.34-9.56,40.45-13.45c17.1-3.88,32.68-5.83,46.72-5.83
		c65.43,0,98.15,32.64,98.15,97.93v137.14h-67v-32.94h-0.9c-15.39,25.7-38.17,38.54-68.35,38.54c-22.26,0-39.78-6.31-52.55-18.94
		c-12.77-12.62-19.16-29.47-19.16-50.53C1245.37,537.21,1271.73,511.52,1324.47,504.64z M1063.19,416.13h37.2v-49.52l70.59-20.17
		v69.69h51.54v52.21h-51.54v92.77c0,23.9,9.49,35.85,28.46,35.85c7.47,0,15.16-2.16,23.08-6.5v52.44
		c-10.46,5.52-26.22,8.29-47.28,8.29c-49.9,0-74.84-25.92-74.84-77.76v-105.1h-37.2V416.13z M959.88,317.08
		c7.62-6.72,17.4-10.08,29.36-10.08c12.1,0,21.92,3.36,29.47,10.08c7.54,6.72,11.32,15.39,11.32,25.99
		c0,10.76-3.77,19.57-11.32,26.44c-7.55,6.87-17.37,10.31-29.47,10.31c-11.95,0-21.74-3.55-29.36-10.64
		c-7.62-7.09-11.43-15.8-11.43-26.11C948.46,332.47,952.26,323.81,959.88,317.08z M1024.2,416.13v229.46h-70.81V416.13H1024.2z
		 M684.26,444.81c19.12-22.86,44.29-34.28,75.52-34.28c27.93,0,48.85,10.76,62.74,32.27h0.9v-26.67h70.81v203.25
		c0,42.58-12.32,75.55-36.97,98.93c-24.65,23.38-60.36,35.07-107.11,35.07c-30.92,0-55.43-4.41-73.5-13.22v-59.61
		c23.6,13.74,47.43,20.62,71.48,20.62c23.9,0,42.43-6.31,55.57-18.94c13.14-12.63,19.72-29.77,19.72-51.43v-18.15h-0.9
		c-16.13,25.7-39.96,38.54-71.48,38.54c-29.28,0-52.51-10.31-69.69-30.92c-17.18-20.62-25.77-48.25-25.77-82.91
		C655.58,498.52,665.13,467.67,684.26,444.81z M545.33,317.08c7.62-6.72,17.4-10.08,29.36-10.08c12.1,0,21.92,3.36,29.47,10.08
		c7.54,6.72,11.32,15.39,11.32,25.99c0,10.76-3.77,19.57-11.32,26.44c-7.55,6.87-17.37,10.31-29.47,10.31
		c-11.95,0-21.74-3.55-29.36-10.64c-7.62-7.09-11.43-15.8-11.43-26.11C533.9,332.47,537.71,323.81,545.33,317.08z M609.64,416.13
		v229.46h-70.81V416.13H609.64z M207.41,324.25h113.84c114.13,0,171.2,52.21,171.2,156.64c0,50.05-15.57,90.01-46.72,119.89
		c-31.15,29.88-72.64,44.82-124.48,44.82H207.41V324.25z M1920,1471.39c0,106.37-86.23,192.61-192.61,192.61H1472H576H320.61
		C214.23,1664,128,1577.77,128,1471.39V960.61C128,854.23,214.23,768,320.61,768H576h896h255.39
		c106.37,0,192.61,86.23,192.61,192.61V1471.39z"/>
	<path class="st0" d="M1707.88,587.55c4.18,4.03,9.15,7.14,14.9,9.3c5.75,2.17,12.21,3.25,19.38,3.25c6.87,0,13.18-1.12,18.94-3.36
		c5.75-2.24,10.72-5.38,14.9-9.41c4.18-4.03,7.47-8.96,9.86-14.79c2.39-5.83,3.59-12.32,3.59-19.5c0-6.42-1.12-12.55-3.36-18.37
		c-2.24-5.83-5.46-10.87-9.64-15.13c-4.18-4.26-9.15-7.65-14.9-10.2c-5.75-2.54-12.21-3.81-19.38-3.81c-6.72,0-13,1.16-18.82,3.47
		c-5.83,2.32-10.83,5.6-15.01,9.86c-4.18,4.26-7.47,9.3-9.86,15.13c-2.39,5.83-3.59,12.18-3.59,19.05c0,7.32,1.12,13.89,3.36,19.72
		C1700.48,578.59,1703.7,583.52,1707.88,587.55z"/>
	<path class="st0" d="M416.25,481.79c0-30.62-8.85-54.71-26.55-72.27c-17.7-17.55-42.54-26.33-74.51-26.33h-35.41v203.69h35.85
		c31.37,0,55.98-9.41,73.84-28.23C407.32,539.82,416.25,514.21,416.25,481.79z"/>
	<path class="st0" d="M1318.98,593.27c5.6,5.15,13.18,7.73,22.74,7.73c13.29,0,24.12-4.59,32.49-13.78
		c8.37-9.19,12.55-20.8,12.55-34.85v-15.46l-41.68,5.38c-23.01,2.99-34.51,13.37-34.51,31.15
		C1310.58,581.5,1313.38,588.11,1318.98,593.27z"/>
</g>
</svg>
