<?xml version="1.0" encoding="utf-8"?>
<!-- Generator: Adobe Illustrator 23.0.3, SVG Export Plug-In . SVG Version: 6.00 Build 0)  -->
<svg version="1.1" id="Layer_1" xmlns="http://www.w3.org/2000/svg" xmlns:xlink="http://www.w3.org/1999/xlink" x="0px" y="0px"
	 viewBox="0 0 2279.4 710.9" style="enable-background:new 0 0 2279.4 710.9;" xml:space="preserve">
<style type="text/css">
	.st0{fill-rule:evenodd;clip-rule:evenodd;fill:#060A0B;}
</style>
<g>
	<path class="st0" d="M0,573.7h196.4c149,0,186.9-139.6,186.9-236.6c0-85.2-31.9-214.1-183.3-214.1H0V573.7L0,573.7z M92.3,201.1
		h91.1c40.2,0,104.1,10.6,104.1,143.1c0,74.5-26,151.4-102.9,151.4H92.3L92.3,201.1L92.3,201.1L92.3,201.1z M414,240.1v333.6h87.5
		V240.1H414z M501.5,118.3H414v81.6h87.5V118.3z M781.9,240.1v49.7h-1.2c-10.6-22.5-35.5-59.1-98.2-59.1
		c-73.3,0-138.4,56.8-138.4,172.7c0,117.1,62.7,172.7,143.1,172.7c53.2,0,75.7-24.8,89.9-50.9l1.2,1.2v40.2
		c0,54.4-22.5,76.9-69.8,76.9c-50.9,0-58-16.6-61.5-33.1h-95.8c3.6,71,76.9,100.5,145.5,100.5c165.6,0,169.2-97,169.2-154.9V240.1
		H781.9z M634,409.3c0-78.1,36.7-102.9,69.8-102.9c48.5,0,75.7,44.9,75.7,98.2c0,46.2-15.4,97-75.7,97
		C651.8,501.6,634,451.9,634,409.3L634,409.3z M920.3,240.1v333.6h87.5V240.1H920.3z M1007.8,118.3h-87.5v81.6h87.5V118.3z
		 M1185.2,149h-87.5v91.1h-46.1v62.7h46.1v202.3c0,43.7,13,73.3,89.9,73.3h10.6c14.2,0,28.4-1.2,41.4-2.4v-66.2
		c-5.9,1.2-11.8,1.2-17.7,1.2c-35.5,0-36.7-7.1-36.7-27.2v-181h54.4v-62.7h-54.4L1185.2,149L1185.2,149z M1547.2,327.7
		c0-82.8-86.4-97-133.7-97c-68.6,0-139.6,14.2-149,117.1h84c3.5-20.1,10.7-46.1,54.4-46.1c22.5,0,58,1.2,58,39
		c0,18.9-16.5,23.7-30.8,26l-79.2,11.8c-55.6,8.3-97,41.4-97,106.5c0,69.8,50.9,98.2,101.7,98.2c59.1,0,87.5-28.4,107.6-48.5
		c2.4,18.9,3.5,23.7,8.3,39h94.6v-13c-10.7-3.5-18.9-11.8-18.9-52L1547.2,327.7L1547.2,327.7L1547.2,327.7z M1460.8,454.2
		c0,40.2-39,66.2-78.1,66.2c-17.8,0-41.4-9.5-41.4-40.2c0-36.7,27.2-44.9,60.3-50.9c35.5-5.9,50.9-10.6,59.1-17.7V454.2
		L1460.8,454.2z M1683.2,123h-87.5v450.7h87.5V123z M2052.3,92.3h-3.5c-8.3,0-16.5,1.2-23.7,2.4c-11.8,2.4-22.5,5.9-30.8,10.6
		c-24.8,14.2-40.2,36.7-40.2,61.5c0,41.4,42.6,74.5,94.6,74.5c53.2,0,95.8-33.1,95.8-74.5c0-34.3-29.6-62.7-68.6-72.2
		C2068.9,93.5,2060.6,92.3,2052.3,92.3L2052.3,92.3z M2279.4,409.3c0,74.5-55.6,189.3-233,189.3c-172.7,0-231.8-98.2-231.8-177.5
		c0-29.6,0-106.5,101.7-147.9c-52-22.5-80.4-59.1-80.4-113.6C1835.8,60.3,1926.9,0,2044,0c138.4,0,211.7,72.2,211.7,152.6
		c0,49.7-22.5,92.3-76.9,117.1C2242.8,296.9,2279.4,334.8,2279.4,409.3L2279.4,409.3z M1969.5,474.4c17.7,20.1,43.8,31.9,78.1,31.9
		c34.3,0,58-11.8,73.3-29.6c22.5-16.6,37.8-40.2,37.8-67.4c0-48.5-50.9-88.7-112.4-88.7c-61.5,0-111.2,40.2-111.2,88.7
		C1935.2,435.3,1948.2,457.8,1969.5,474.4z"/>
</g>
</svg>
