<?xml version="1.0" encoding="utf-8"?>
<!-- Generator: Adobe Illustrator 23.0.2, SVG Export Plug-In . SVG Version: 6.00 Build 0)  -->
<svg version="1.1" id="Layer_1" xmlns="http://www.w3.org/2000/svg" xmlns:xlink="http://www.w3.org/1999/xlink" x="0px" y="0px"
	 viewBox="0 0 500 250" style="enable-background:new 0 0 500 250;" xml:space="preserve">
<style type="text/css">
	.st0{fill-rule:evenodd;clip-rule:evenodd;fill:#060A0B;}
</style>
<g>
	<path class="st0" d="M0,172.8h43.1c32.7,0,40.9-30.6,40.9-51.9c0-18.7-7-46.9-40.2-46.9H0V172.8L0,172.8z M20.3,91.1h20
		c8.8,0,22.8,2.3,22.8,31.4c0,16.3-5.7,33.2-22.6,33.2H20.3V91.1L20.3,91.1L20.3,91.1z M90.8,99.6v73.2h19.1V99.6H90.8z M109.9,73
		H90.8v17.9h19.1V73z M171.6,99.6v10.8h-0.3c-2.3-5-7.8-13-21.6-13c-16.1,0-30.4,12.5-30.4,37.9c0,25.6,13.8,37.9,31.4,37.9
		c11.6,0,16.6-5.5,19.8-11.2l0.3,0.3v8.8c0,12-5,16.8-15.3,16.8c-11.2,0-12.8-3.7-13.5-7.3h-21c0.8,15.6,16.8,22.1,31.9,22.1
		c36.4,0,37.1-21.3,37.1-33.9V99.5L171.6,99.6L171.6,99.6z M139,136.7c0-17.1,8-22.6,15.3-22.6c10.6,0,16.6,9.8,16.6,21.6
		c0,10.1-3.3,21.3-16.6,21.3C143,157,139,146.2,139,136.7L139,136.7z M201.9,99.6v73.2H221V99.6H201.9z M221,73h-19.1v17.9H221V73z
		 M259.9,79.7h-19.1v20h-10.1v13.8h10.1v44.4c0,9.6,2.8,16.1,19.8,16.1h2.3c3.1,0,6.3-0.3,9.1-0.5v-14.5c-1.3,0.3-2.6,0.3-3.8,0.3
		c-7.8,0-8-1.5-8-6v-39.7h12V99.8h-12L259.9,79.7L259.9,79.7z M339.4,118.9c0-18.1-19-21.3-29.3-21.3c-15.1,0-30.6,3.1-32.7,25.6
		h18.4c0.8-4.5,2.3-10.1,12-10.1c5,0,12.8,0.3,12.8,8.5c0,4.2-3.6,5.2-6.8,5.7l-17.3,2.6c-12.2,1.8-21.3,9.1-21.3,23.3
		c0,15.3,11.2,21.6,22.3,21.6c13,0,19.1-6.2,23.6-10.6c0.5,4.2,0.8,5.2,1.8,8.5h20.8V170c-2.3-0.8-4.2-2.6-4.2-11.4L339.4,118.9
		L339.4,118.9L339.4,118.9z M320.4,146.6c0,8.8-8.5,14.5-17.1,14.5c-4,0-9.1-2-9.1-8.8c0-8,6-9.8,13.3-11.2c7.8-1.3,11.2-2.3,13-3.8
		L320.4,146.6L320.4,146.6z M369.3,74h-19.1v98.9h19.1V74z M450.1,67.2h-0.8c-1.8,0-3.6,0.3-5.2,0.5c-2.6,0.5-5,1.3-6.8,2.3
		c-5.5,3.1-8.8,8-8.8,13.5c0,9.1,9.3,16.3,20.8,16.3c11.6,0,21-7.3,21-16.3c0-7.5-6.5-13.8-15.1-15.8
		C453.8,67.5,452,67.2,450.1,67.2L450.1,67.2z M500,136.7c0,16.3-12.2,41.6-51.1,41.6c-37.9,0-50.9-21.6-50.9-38.9
		c0-6.5,0-23.3,22.3-32.4c-11.4-5-17.6-13-17.6-24.9c0-21.8,19.9-34.9,45.7-34.9c30.4,0,46.4,15.8,46.4,33.4
		c0,10.8-5,20.3-16.8,25.6C492,112.1,500,120.4,500,136.7L500,136.7z M432,151c3.8,4.5,9.6,7,17.1,7s12.8-2.6,16.1-6.5
		c5-3.7,8.3-8.8,8.3-14.8c0-10.6-11.2-19.5-24.6-19.5c-13.5,0-24.4,8.8-24.4,19.5C424.5,142.5,427.3,147.5,432,151z"/>
</g>
</svg>
