<?xml version="1.0" encoding="utf-8"?>
<!-- Generator: Adobe Illustrator 23.0.2, SVG Export Plug-In . SVG Version: 6.00 Build 0)  -->
<svg version="1.1" id="Layer_1" xmlns="http://www.w3.org/2000/svg" xmlns:xlink="http://www.w3.org/1999/xlink" x="0px" y="0px"
	 viewBox="0 0 1000 500" style="enable-background:new 0 0 1000 500;" xml:space="preserve">
<g>
	<path d="M570,84.1c0,0-69,84.6-65.2,90.2c4.9-5.4-24.8-91-24.8-91s-6.1-18.1-25.6-76.9h-70H214H86L73.2,61.7h96.6h22.7
		c62.1,0,100.2,25.8,89.4,71.3c-11.5,49.6-65.7,70.8-123.4,70.8H137l27.9-121.4H68.3L27.2,259.3h137c103.2,0,201.1-55.5,218.7-126.5
		c3.1-13,2.6-46-5.4-65.2c0-0.5-0.5-1.3-0.8-2.8c-0.5-0.5-0.8-3.6,0.8-4.1c0.8-0.5,2.6,1.3,2.6,1.8c0,0,0.8,2.3,1.8,4.1L469,318.4
		L691.3,61.8l94-0.5H808c62.1,0,100.4,25.8,90,71.3c-11.5,49.6-66.2,70.8-123.9,70.8h-22l28.1-121.1h-96.6l-41.1,177.1h137
		c103.2,0,201.9-55.5,218.2-126.5C1014.6,61.6,942,6.4,838.2,6.4h-91H633.6C580.2,71.6,570,84.1,570,84.1L570,84.1z"/>
	<path d="M472.6,319.2c-261.2,0-472.8,30.7-472.8,68.5s211.6,68.5,472.8,68.5c261.4,0,473.3-30.7,473.3-68.5
		C945.6,349.8,734,319.2,472.6,319.2z M455.7,412.2c-60.1,0-108.1-10.2-108.1-23s48-23,108.1-23c59.5,0,107.6,10.2,107.6,23
		C563.6,401.7,515.3,412.2,455.7,412.2z"/>
	<polygon points="890.2,455.9 890.2,450.8 861.3,450.8 860,455.9 872,455.9 867.4,493.7 873.3,493.7 878.2,455.9 	"/>
	<polygon points="933.4,493.7 933.4,450.8 928.5,450.8 912.9,480.4 905.8,450.8 900.9,450.8 887.9,493.7 892.5,493.7 903.5,460.7 
		910.6,493.7 927.2,460.7 928.5,493.7 	"/>
</g>
</svg>
