<?xml version="1.0" encoding="utf-8"?>
<!-- Generator: Adobe Illustrator 23.0.2, SVG Export Plug-In . SVG Version: 6.00 Build 0)  -->
<svg version="1.1" id="svg2720" xmlns:svg="http://www.w3.org/2000/svg"
	 xmlns="http://www.w3.org/2000/svg" xmlns:xlink="http://www.w3.org/1999/xlink" x="0px" y="0px" viewBox="0 0 500 250"
	 style="enable-background:new 0 0 500 250;" xml:space="preserve">
<g id="layer1" transform="translate(-2750.7151,971.12789)">
	<g id="g3319" transform="translate(35.376282,35.43307)">
		<path id="path3050" d="M2845.1-785.6h53.6v-188.5h-53.6V-785.6z"/>
		<path id="path3052" d="M2922.2-785.6h53.6v-123.7h-53.6V-785.6z"/>
		<g id="g3054" transform="matrix(55.33815,0,0,-55.33815,2849.8257,-748.00446)">
			<path id="path3056" d="M-1.4,2h1v1h-1v1.1h-1V0.7h1L-1.4,2"/>
		</g>
		<g id="g3058" transform="matrix(55.33815,0,0,-55.33815,3179.0331,-865.26601)">
			<path id="path3060" d="M-4.1,1c0.3,0,0.5,0.3,0.5,0.5S-3.9,2-4.1,2s-0.5-0.1-0.5-0.5C-4.8,1.3-4.5,1-4.1,1"/>
		</g>
		<g id="g3062" transform="matrix(55.33815,0,0,-55.33815,3491.7489,-814.85243)">
			<path id="path3064" d="M-6.6,1.4c0.3,0,0.4,0.3,0.4,0.4s-0.3,0.4-0.4,0.4C-6.9,2.2-7,1.9-7,1.8C-7.2,1.5-7,1.4-6.6,1.4z M-6.6,0
				c0.3,0,0.4,0.3,0.4,0.5s-0.1,0.6-0.4,0.6s-0.5-0.3-0.5-0.5S-7,0-6.6,0z M-7.3,1.3c-0.3-0.1-0.4-0.4-0.4-0.8c0-0.5,0.5-0.9,1-0.9
				S-5.8,0-5.8,0.5c0,0.4-0.1,0.5-0.4,0.8C-6,1.4-5.8,1.7-5.8,1.8c0,0.4-0.4,0.8-0.8,0.8c-0.5,0-0.8-0.4-0.8-0.8
				C-7.5,1.5-7.4,1.4-7.3,1.3z M-8.4,2.9H-5v-3.4h-3.4V2.9z"/>
		</g>
	</g>
</g>
</svg>
