<?xml version="1.0" encoding="utf-8"?>
<!-- Generator: Adobe Illustrator 23.0.2, SVG Export Plug-In . SVG Version: 6.00 Build 0)  -->
<svg version="1.1" id="Layer_1" xmlns:odm="http://product.corel.com/CGS/11/cddns/"
	 xmlns="http://www.w3.org/2000/svg" xmlns:xlink="http://www.w3.org/1999/xlink" x="0px" y="0px" viewBox="0 0 500 250"
	 style="enable-background:new 0 0 500 250;" xml:space="preserve">
<style type="text/css">
	.st0{fill-rule:evenodd;clip-rule:evenodd;}
</style>
<g>
	<g>
		<rect x="181.7" y="29.6" class="st0" width="40.3" height="188.1"/>
	</g>
	<g>
		<rect x="268.3" y="29.6" class="st0" width="40.3" height="188.1"/>
	</g>
	<g>
		<path class="st0" d="M37.6,29.6h45.2l47.7,189.3H85.2L37.6,29.6z"/>
	</g>
	<g>
		<path class="st0" d="M164.6,29.6h-24.5c-1.2,1.2-1.2,4.9,0,6.1c2.5,7.4,1.2,16,0,23.2L103.4,219h18.3L164.6,29.6z"/>
	</g>
	<g>
		<path class="st0" d="M273.3,150.6h-89.2l-11,17.1H244C254.9,167.7,269.6,159.1,273.3,150.6z"/>
	</g>
	<g>
		<path class="st0" d="M403.9,109.1c-62.3-12.2-41.5-63.5-6.1-63.5h57.4l7.4-16h-74.4c-22.1,0-69.7,22.1-63.5,64.8
			c2.5,28,22.1,39.1,57.4,48.8c61.1,14.7,41.5,58.7,14.7,58.7h-66l7.4,17.1h62.3c33,0,62.3-23.2,62.3-56.2
			C461.4,128.6,443,116.4,403.9,109.1z"/>
	</g>
	<g>
		<path d="M494.6,250H5.4V0.1h489.3V250z M23.2,232.2h453.7V17.9H23.2V232.2z"/>
	</g>
</g>
</svg>
