<?xml version="1.0" encoding="utf-8"?>
<!-- Generator: Adobe Illustrator 23.0.2, SVG Export Plug-In . SVG Version: 6.00 Build 0)  -->
<svg version="1.1" id="Layer_1" xmlns="http://www.w3.org/2000/svg" xmlns:xlink="http://www.w3.org/1999/xlink" x="0px" y="0px"
	 viewBox="0 0 2048 2048" style="enable-background:new 0 0 2048 2048;" xml:space="preserve">
<style type="text/css">
	.st0{fill:#007BFF;}
</style>
<g>
	<path class="st0" d="M1855.39,256H192.61C86.23,256,0,342.23,0,448.61v1150.78C0,1705.77,86.23,1792,192.61,1792H576h128h640h128
		h383.39c106.37,0,192.61-86.23,192.61-192.61V448.61C2048,342.23,1961.77,256,1855.39,256z M576,1664H320.61
		C214.23,1664,128,1577.77,128,1471.39V960.61C128,854.23,214.23,768,320.61,768H576v96h-27.99C360.23,864,208,1021.6,208,1216
		s152.23,352,340.01,352H576v61.87V1664z M576,1440h-27.99c-55.79,0-108.48-22.74-148.36-64.03C358.61,1333.48,336,1276.67,336,1216
		c0-60.67,22.61-117.48,63.65-159.97c39.88-41.29,92.57-64.03,148.36-64.03H576V1440z M1344,1568H704V864h640V1568z M1920,1471.39
		c0,106.37-86.23,192.61-192.61,192.61H1472v-34.13V1568h26.99c187.78,0,340.01-157.6,340.01-352s-152.23-352-340.01-352H1472v-96
		h255.39c106.37,0,192.61,86.23,192.61,192.61V1471.39z M1472,1440V992h26.99c55.79,0,108.48,22.74,148.36,64.03
		c41.05,42.49,63.65,99.31,63.65,159.97c0,60.67-22.6,117.48-63.65,159.97c-39.88,41.29-92.57,64.03-148.36,64.03H1472z M1920,576
		h-448h-128H704H576H128c-35.35,0-64-28.65-64-64s28.65-64,64-64h1792c35.35,0,64,28.65,64,64S1955.35,576,1920,576z"/>
</g>
</svg>
