<?xml version="1.0" encoding="utf-8"?>
<!-- Generator: Adobe Illustrator 23.0.2, SVG Export Plug-In . SVG Version: 6.00 Build 0)  -->
<svg version="1.1" id="Layer_1" xmlns="http://www.w3.org/2000/svg" xmlns:xlink="http://www.w3.org/1999/xlink" x="0px" y="0px"
	 viewBox="0 0 2048 2048" style="enable-background:new 0 0 2048 2048;" xml:space="preserve">
<style type="text/css">
	.st0{fill:#007BFF;}
</style>
<path class="st0" d="M1024,0c94,0,184.7,12.2,272,36.5s168.8,58.8,244.5,103.5s144.7,98.2,207,160.5s115.8,131.3,160.5,207
	s79.2,157.2,103.5,244.5s36.5,178,36.5,272s-12.2,184.7-36.5,272s-58.8,168.8-103.5,244.5s-98.2,144.7-160.5,207
	s-131.3,115.8-207,160.5s-157.2,79.2-244.5,103.5s-178,36.5-272,36.5s-184.7-12.2-272-36.5s-168.8-58.8-244.5-103.5
	s-144.7-98.2-207-160.5s-115.8-131.3-160.5-207S60.8,1383.3,36.5,1296S0,1118,0,1024s12.2-184.7,36.5-272S95.3,583.2,140,507.5
	s98.2-144.7,160.5-207s131.3-115.8,207-160.5S664.7,60.8,752,36.5S930,0,1024,0z M1024,1920c82.7,0,162.2-10.7,238.5-32
	s147.7-51.5,214-90.5s126.7-85.7,181-140s101-114.7,140-181s69.2-137.7,90.5-214s32-155.8,32-238.5s-10.7-162.2-32-238.5
	s-51.5-147.7-90.5-214s-85.7-126.7-140-181s-114.7-101-181-140s-137.7-69.2-214-90.5s-155.8-32-238.5-32s-162.2,10.7-238.5,32
	s-147.7,51.5-214,90.5s-126.7,85.7-181,140s-101,114.7-140,181s-69.2,137.7-90.5,214s-32,155.8-32,238.5s10.7,162.2,32,238.5
	s51.5,147.7,90.5,214s85.7,126.7,140,181s114.7,101,181,140s137.7,69.2,214,90.5S941.3,1920,1024,1920z"/>
<path class="st0" d="M1024,1408c-51.8,0-102.1-10.2-149.5-30.2c-45.7-19.3-86.8-47-122-82.3c-35.2-35.2-62.9-76.3-82.3-122
	c-20-47.4-30.2-97.7-30.2-149.5s10.2-102.1,30.2-149.5c19.3-45.7,47-86.8,82.3-122c35.2-35.2,76.3-62.9,122-82.3
	c47.4-20,97.7-30.2,149.5-30.2c51.8,0,102.1,10.2,149.5,30.2c45.7,19.3,86.8,47,122,82.3c35.2,35.2,62.9,76.3,82.3,122
	c20,47.4,30.2,97.7,30.2,149.5c0,51.8-10.2,102.1-30.2,149.5c-19.3,45.7-47,86.8-82.3,122s-76.3,62.9-122,82.3
	C1126.1,1397.8,1075.8,1408,1024,1408z M1024,768c-141.2,0-256,114.8-256,256s114.8,256,256,256s256-114.8,256-256
	S1165.2,768,1024,768z"/>
<path class="st0" d="M1024.7,1811.5c-38.2,0-76.5-2.8-114.6-8.4l18.6-126.6c148.1,21.7,295-6.4,425-81.4
	c129.9-75,227.8-188.2,283-327.3l119,47.2c-32,80.6-76.7,154.8-132.8,220.5c-58.1,68-127.1,125.3-205.2,170.4
	s-162.2,76.2-250.2,92.5C1120.3,1807.1,1072.6,1811.5,1024.7,1811.5z"/>
<path class="st0" d="M411.3,780.3l-119-47.2c32-80.6,76.7-154.8,132.8-220.5c58.1-68,127.1-125.3,205.2-170.4s162.2-76.2,250.2-92.5
	c85-15.7,171.5-17.3,257.4-4.7l-18.6,126.6c-148.1-21.7-295,6.4-425,81.4C564.4,528,466.5,641.1,411.3,780.3z"/>
<circle class="st0" cx="1024" cy="1024" r="128"/>
</svg>
