<?xml version="1.0" encoding="utf-8"?>
<!-- Generator: Adobe Illustrator 23.0.2, SVG Export Plug-In . SVG Version: 6.00 Build 0)  -->
<svg version="1.1" id="Layer_1" xmlns="http://www.w3.org/2000/svg" xmlns:xlink="http://www.w3.org/1999/xlink" x="0px" y="0px"
	 viewBox="0 0 2048 2048" style="enable-background:new 0 0 2048 2048;" xml:space="preserve">
<style type="text/css">
	.st0{fill:#007BFF;}
</style>
<path class="st0" d="M1472,800c-229.75,0-416,186.25-416,416s186.25,416,416,416s416-186.25,416-416S1701.75,800,1472,800z
	 M1472,1344c-70.69,0-128-57.31-128-128s57.31-128,128-128s128,57.31,128,128S1542.69,1344,1472,1344z"/>
<path class="st0" d="M576,800c-229.75,0-416,186.25-416,416s186.25,416,416,416s416-186.25,416-416S805.75,800,576,800z M576,1344
	c-70.69,0-128-57.31-128-128s57.31-128,128-128s128,57.31,128,128S646.69,1344,576,1344z"/>
<g>
	<path class="st0" d="M1221.15,587.81c4.18,4.03,9.15,7.14,14.9,9.3c5.75,2.17,12.21,3.25,19.38,3.25c6.87,0,13.18-1.12,18.93-3.36
		c5.75-2.24,10.72-5.38,14.9-9.41c4.18-4.03,7.47-8.96,9.86-14.79c2.39-5.83,3.59-12.32,3.59-19.49c0-6.42-1.12-12.55-3.36-18.37
		c-2.24-5.83-5.46-10.87-9.64-15.12c-4.18-4.26-9.15-7.65-14.9-10.2c-5.75-2.54-12.21-3.81-19.38-3.81c-6.72,0-13,1.16-18.82,3.47
		c-5.83,2.32-10.83,5.6-15.01,9.86c-4.18,4.26-7.47,9.3-9.86,15.12c-2.39,5.83-3.59,12.18-3.59,19.05c0,7.32,1.12,13.89,3.36,19.72
		C1213.76,578.85,1216.97,583.78,1221.15,587.81z"/>
	<path class="st0" d="M1229.22,440.03c3.43,3.66,7.51,6.54,12.21,8.63c4.71,2.09,9.67,3.14,14.9,3.14c5.38,0,10.38-1.04,15.01-3.14
		c4.63-2.09,8.7-5,12.21-8.74c3.51-3.73,6.27-8.07,8.29-13c2.02-4.93,3.02-10.23,3.02-15.91c0-5.83-0.97-11.24-2.91-16.25
		c-1.94-5-4.67-9.33-8.18-13c-3.51-3.66-7.62-6.53-12.32-8.63c-4.71-2.09-9.75-3.14-15.12-3.14c-5.68,0-10.87,1.09-15.57,3.25
		c-4.71,2.17-8.74,5.08-12.1,8.74c-3.36,3.66-5.98,7.99-7.84,13c-1.87,5.01-2.8,10.35-2.8,16.02c0,5.68,1.01,11.02,3.03,16.02
		C1223.06,432.05,1225.78,436.38,1229.22,440.03z"/>
	<path class="st0" d="M1855.39,256H192.61C86.23,256,0,342.23,0,448.61v1150.78C0,1705.77,86.23,1792,192.61,1792H576h128h640h128
		h383.39c106.37,0,192.61-86.23,192.61-192.61V448.61C2048,342.23,1961.77,256,1855.39,256z M1145.08,533.47
		c2.61-8.29,6.53-15.98,11.76-23.08c5.23-7.09,11.76-13.44,19.61-19.05c7.84-5.6,17.06-10.2,27.67-13.78
		c-16.28-8.07-28.91-18.41-37.87-31.03c-8.96-12.62-13.44-26.63-13.44-42.01c0-12.25,2.58-23.6,7.73-34.06
		c5.15-10.45,12.29-19.49,21.4-27.11c9.11-7.62,19.98-13.56,32.6-17.81c12.62-4.26,26.4-6.39,41.34-6.39
		c15.24,0,29.2,2.13,41.9,6.39c12.69,4.26,23.64,10.16,32.83,17.7c9.19,7.55,16.32,16.47,21.4,26.78
		c5.08,10.31,7.62,21.51,7.62,33.61c0,15.24-4.78,29.09-14.34,41.57c-9.56,12.47-22.78,22.74-39.66,30.81
		c10.45,3.59,19.64,8.18,27.56,13.78c7.92,5.6,14.56,11.99,19.94,19.16c5.38,7.17,9.41,14.98,12.1,23.42
		c2.69,8.44,4.03,17.22,4.03,26.33c0,13.75-2.77,26.26-8.29,37.53c-5.53,11.28-13.33,20.99-23.42,29.13
		c-10.08,8.14-22.11,14.45-36.08,18.93c-13.97,4.48-29.39,6.72-46.27,6.72c-16.58,0-31.86-2.21-45.82-6.61
		c-13.97-4.4-25.99-10.64-36.08-18.71c-10.08-8.07-17.96-17.74-23.64-29.02c-5.68-11.28-8.51-23.71-8.51-37.31
		C1141.16,550.39,1142.47,541.76,1145.08,533.47z M1029.12,317.35c7.62-6.72,17.4-10.08,29.35-10.08c12.1,0,21.92,3.36,29.47,10.08
		c7.54,6.72,11.32,15.39,11.32,25.99c0,10.76-3.77,19.57-11.32,26.44c-7.55,6.87-17.37,10.31-29.47,10.31
		c-11.95,0-21.74-3.55-29.35-10.64c-7.62-7.09-11.43-15.8-11.43-26.1C1017.7,332.74,1021.5,324.08,1029.12,317.35z M1093.43,416.4
		v229.45h-70.81V416.4H1093.43z M678,324.53h72.38V452.7h133.1V324.53h72.6v321.32h-72.6V514.99h-133.1v130.86H678V324.53z
		 M1920,1471.39c0,106.37-86.23,192.61-192.61,192.61H1472H576H320.61C214.23,1664,128,1577.77,128,1471.39V960.61
		C128,854.23,214.23,768,320.61,768H576h896h255.39c106.37,0,192.61,86.23,192.61,192.61V1471.39z"/>
</g>
</svg>
